
<svg width="283" height="296" viewBox="0 0 283 296" fill="none" xmlns="http://www.w3.org/2000/svg">
    <path
        d="M265.07 74.2574C270.91 98.5533 269.033 122.018 273.171 146.61C277.231 171.356 286.996 197.458 281.049 217.88C275.023 238.456 253.205 253.506 230.86 266.929C208.747 280.277 186.027 292.153 161.987 294.829C137.947 297.504 112.662 291.21 92.2169 278.08C71.6938 265.103 56.165 245.368 38.7898 224.691C21.493 203.861 2.19576 182.012 0.977993 159.296C-0.239779 136.58 16.3925 112.686 35.2106 95.9144C53.8747 79.0645 74.803 69.1829 93.6878 53.8022C112.805 38.346 129.957 17.2367 152.816 7.36977C175.521 -2.57557 203.933 -1.27859 224.918 11.9333C245.749 25.0668 259.152 50.1153 265.07 74.2574Z"
        fill="#97C1FF" fill-opacity="0.32" />
</svg>