<svg width="26" height="26" viewBox="0 0 26 26" fill="none" xmlns="http://www.w3.org/2000/svg">
<path d="M12.1333 2.59998L3.46667 2.59998M25.1333 21.6666L25.1333 7.79998C25.1333 7.34027 24.9507 6.89939 24.6257 6.57432C24.3006 6.24926 23.8597 6.06664 23.4 6.06664L2.6 6.06664C2.14029 6.06664 1.69941 6.24926 1.37435 6.57432C1.04929 6.89939 0.866669 7.34027 0.866669 7.79998L0.866669 21.6666C0.866669 22.1264 1.04929 22.5672 1.37435 22.8923C1.69941 23.2174 2.14029 23.4 2.6 23.4L23.4 23.4C23.8597 23.4 24.3006 23.2174 24.6257 22.8923C24.9507 22.5672 25.1333 22.1264 25.1333 21.6666ZM16.4667 18.2C15.5473 18.2 14.6655 17.8347 14.0154 17.1846C13.3652 16.5345 13 15.6527 13 14.7333C13 13.8139 13.3652 12.9321 14.0154 12.282C14.6655 11.6319 15.5473 11.2666 16.4667 11.2666C17.3861 11.2666 18.2678 11.6319 18.918 12.282C19.5681 12.9321 19.9333 13.8139 19.9333 14.7333C19.9333 15.6527 19.5681 16.5345 18.918 17.1846C18.2678 17.8347 17.3861 18.2 16.4667 18.2Z" stroke="white"/>
</svg>
