<svg width="30" height="30" viewBox="0 0 30 30" fill="none" xmlns="http://www.w3.org/2000/svg">
<path fill-rule="evenodd" clip-rule="evenodd" d="M17.625 6.54427L17.625 6.525L17.625 3.75L9.9 3.75C9.05992 3.75 8.63988 3.75 8.31901 3.91349C8.03677 4.0573 7.8073 4.28677 7.66349 4.56901C7.5 4.88988 7.5 5.30992 7.5 6.15L7.5 10.25L10.4547 10.25L10.514 10.2499C10.746 10.2494 11.0088 10.2489 11.2665 10.3108C11.491 10.3647 11.7056 10.4536 11.9024 10.5742C12.1285 10.7127 12.3139 10.8989 12.4776 11.0633L12.5195 11.1052L15.1448 13.7305C15.2547 13.8405 15.3141 13.8995 15.3603 13.9417C15.3804 13.9601 15.3915 13.9691 15.3959 13.9726C15.4118 13.9818 15.4288 13.9889 15.4465 13.9935C15.4522 13.9942 15.4664 13.9957 15.4935 13.9969C15.5561 13.9998 15.6398 14 15.7953 14L22.5 14C22.5 13.9515 22.5 13.9016 22.5 13.85L22.5 8.625L19.725 8.625L19.7057 8.625C19.4422 8.62501 19.2148 8.62502 19.0275 8.60971C18.8298 8.59356 18.6332 8.55791 18.444 8.46151C18.1618 8.3177 17.9323 8.08823 17.7885 7.80599C17.6921 7.6168 17.6564 7.42019 17.6403 7.22251C17.625 7.03523 17.625 6.80786 17.625 6.54429L17.625 6.54428L17.625 6.54427ZM21.8292 16L15.7953 16L15.736 16.0001L15.736 16.0001C15.504 16.0006 15.2412 16.0011 14.9835 15.9392C14.759 15.8853 14.5444 15.7964 14.3476 15.6758C14.1215 15.5373 13.9361 15.3511 13.7724 15.1867L13.7305 15.1448L11.1052 12.5195C10.9953 12.4095 10.9359 12.3505 10.8897 12.3083C10.8696 12.2899 10.8585 12.2809 10.8541 12.2774C10.8382 12.2682 10.8212 12.2611 10.8035 12.2565C10.7978 12.2558 10.7836 12.2543 10.7565 12.2531C10.6939 12.2502 10.6102 12.25 10.4547 12.25L7.5 12.25L7.5 13.85C7.5 14.6901 7.5 15.1101 7.66349 15.431C7.8073 15.7132 8.03677 15.9427 8.31901 16.0865C8.63988 16.25 9.05992 16.25 9.9 16.25L20.1 16.25C20.9401 16.25 21.3601 16.25 21.681 16.0865C21.7322 16.0604 21.7816 16.0315 21.8292 16ZM18.625 6.525L18.625 3.79274C18.7068 3.81746 18.7853 3.85261 18.8583 3.89736C18.9592 3.9592 19.0457 4.04568 19.2186 4.21862L19.2186 4.21863L22.0314 7.03137C22.2043 7.20432 22.2908 7.2908 22.3526 7.39172C22.3974 7.46475 22.4325 7.54316 22.4573 7.625L19.725 7.625C19.4367 7.625 19.2506 7.62461 19.1089 7.61304C18.9731 7.60194 18.9227 7.5831 18.898 7.5705C18.8039 7.52257 18.7274 7.44608 18.6795 7.35199C18.6669 7.32727 18.6481 7.27691 18.637 7.14108C18.6254 6.99941 18.625 6.81328 18.625 6.525Z" fill="black"/>
<path d="M3.75 13.65C3.75 12.8099 3.75 12.3899 3.91349 12.069C4.0573 11.7868 4.28677 11.5573 4.56901 11.4135C4.88988 11.25 5.30992 11.25 6.15 11.25L10.4547 11.25C10.7482 11.25 10.895 11.25 11.0331 11.2832C11.1555 11.3126 11.2726 11.361 11.3799 11.4268C11.501 11.501 11.6048 11.6048 11.8124 11.8124L14.4376 14.4376C14.6452 14.6452 14.749 14.749 14.8701 14.8232C14.9774 14.889 15.0945 14.9374 15.2169 14.9668C15.355 15 15.5018 15 15.7953 15L23.85 15C24.6901 15 25.1101 15 25.431 15.1635C25.7132 15.3073 25.9427 15.5368 26.0865 15.819C26.25 16.1399 26.25 16.5599 26.25 17.4L26.25 25.1C26.25 25.9401 26.25 26.3601 26.0865 26.681C25.9427 26.9632 25.7132 27.1927 25.431 27.3365C25.1101 27.5 24.6901 27.5 23.85 27.5L6.15 27.5C5.30992 27.5 4.88988 27.5 4.56901 27.3365C4.28677 27.1927 4.0573 26.9632 3.91349 26.681C3.75 26.3601 3.75 25.9401 3.75 25.1L3.75 13.65Z" fill="black"/>
</svg>
